<svg width="262" height="27" viewBox="0 0 262 27" fill="none" xmlns="http://www.w3.org/2000/svg">
<path d="M11.376 0.439999H12.96L23.76 26H21.816L18.252 17.576H6.048L2.484 26H0.504L11.376 0.439999ZM17.748 16.064L12.168 2.672L6.48 16.064H17.748ZM29.477 3.86V26H27.641V0.439999H29.153L46.973 22.94V0.439999H48.809V26H47.009L29.477 3.86ZM55.4847 26V0.439999H63.9807C66.6927 0.439999 68.9367 1.016 70.7127 2.168C72.5127 3.296 73.8567 4.832 74.7447 6.776C75.6567 8.696 76.1127 10.832 76.1127 13.184C76.1127 15.776 75.6207 18.032 74.6367 19.952C73.6527 21.872 72.2487 23.36 70.4247 24.416C68.6007 25.472 66.4527 26 63.9807 26H55.4847ZM74.2767 13.184C74.2767 11.048 73.8687 9.14 73.0527 7.46C72.2607 5.78 71.0967 4.472 69.5607 3.536C68.0487 2.576 66.1887 2.096 63.9807 2.096H57.3207V24.344H63.9807C66.2127 24.344 68.0967 23.852 69.6327 22.868C71.1687 21.884 72.3207 20.552 73.0887 18.872C73.8807 17.168 74.2767 15.272 74.2767 13.184ZM78.9188 0.439999L87.8468 14.588L96.8108 0.439999H98.8628L88.7828 16.352V26H86.9468V16.28L76.9028 0.439999H78.9188ZM109.819 13.04C109.819 11.48 110.095 9.956 110.647 8.468C111.223 6.956 112.051 5.588 113.131 4.364C114.211 3.116 115.531 2.132 117.091 1.412C118.651 0.667999 120.427 0.295998 122.419 0.295998C124.771 0.295998 126.799 0.811999 128.503 1.844C130.231 2.876 131.515 4.22 132.355 5.876L128.539 8.504C128.107 7.544 127.543 6.788 126.847 6.236C126.151 5.66 125.407 5.264 124.615 5.048C123.823 4.808 123.043 4.688 122.275 4.688C121.027 4.688 119.935 4.94 118.999 5.444C118.087 5.948 117.319 6.608 116.695 7.424C116.071 8.24 115.603 9.152 115.291 10.16C115.003 11.168 114.859 12.176 114.859 13.184C114.859 14.312 115.039 15.404 115.399 16.46C115.759 17.492 116.263 18.416 116.911 19.232C117.583 20.024 118.375 20.66 119.287 21.14C120.223 21.596 121.243 21.824 122.347 21.824C123.139 21.824 123.943 21.692 124.759 21.428C125.575 21.164 126.331 20.744 127.027 20.168C127.723 19.592 128.263 18.848 128.647 17.936L132.715 20.276C132.211 21.548 131.383 22.628 130.231 23.516C129.103 24.404 127.831 25.076 126.415 25.532C124.999 25.988 123.595 26.216 122.203 26.216C120.379 26.216 118.711 25.844 117.199 25.1C115.687 24.332 114.379 23.324 113.275 22.076C112.195 20.804 111.343 19.388 110.719 17.828C110.119 16.244 109.819 14.648 109.819 13.04ZM142.643 0.439999H147.683L157.079 26H151.967L149.591 19.628H140.663L138.323 26H133.211L142.643 0.439999ZM148.691 16.136L145.163 5.588L141.491 16.136H148.691ZM176.608 4.796H168.436V26H163.504V4.796H155.332V0.439999H176.608V4.796ZM179.781 26V0.439999H184.749V21.644H197.781V26H179.781ZM211.15 26.18C209.278 26.18 207.574 25.82 206.038 25.1C204.526 24.38 203.218 23.408 202.114 22.184C201.034 20.936 200.194 19.544 199.594 18.008C198.994 16.448 198.694 14.852 198.694 13.22C198.694 11.516 199.006 9.896 199.63 8.36C200.278 6.8 201.154 5.42 202.258 4.22C203.386 2.996 204.706 2.036 206.218 1.34C207.754 0.619998 209.434 0.259999 211.258 0.259999C213.106 0.259999 214.786 0.631999 216.298 1.376C217.834 2.12 219.142 3.116 220.222 4.364C221.302 5.612 222.142 7.004 222.742 8.54C223.342 10.076 223.642 11.66 223.642 13.292C223.642 14.972 223.33 16.592 222.706 18.152C222.082 19.688 221.206 21.068 220.078 22.292C218.974 23.492 217.654 24.44 216.118 25.136C214.606 25.832 212.95 26.18 211.15 26.18ZM203.734 13.22C203.734 14.324 203.902 15.392 204.238 16.424C204.574 17.456 205.054 18.38 205.678 19.196C206.326 19.988 207.106 20.624 208.018 21.104C208.954 21.56 210.01 21.788 211.186 21.788C212.386 21.788 213.454 21.548 214.39 21.068C215.326 20.564 216.106 19.904 216.73 19.088C217.354 18.248 217.822 17.324 218.134 16.316C218.47 15.284 218.638 14.252 218.638 13.22C218.638 12.116 218.458 11.06 218.098 10.052C217.762 9.02 217.27 8.108 216.622 7.316C215.998 6.5 215.218 5.864 214.282 5.408C213.37 4.928 212.338 4.688 211.186 4.688C209.962 4.688 208.882 4.94 207.946 5.444C207.034 5.924 206.266 6.572 205.642 7.388C205.018 8.204 204.538 9.116 204.202 10.124C203.89 11.132 203.734 12.164 203.734 13.22ZM235.182 0.512H239.79L242.706 8.972L245.658 0.512H250.23L245.838 12.14L249.078 20.276L256.314 0.439999H261.714L251.49 26H247.206L242.706 15.272L238.242 26H233.958L223.77 0.439999H229.098L236.37 20.276L239.538 12.14L235.182 0.512Z" fill="#E5E5E5"/>
</svg>
